<?xml version="1.0" standalone="no"?><svg xmlns="http://www.w3.org/2000/svg" viewBox="0 0 1440 320"><path fill="#0077ff" fill-opacity="1" d="M0,96L7.5,122.7C15,149,30,203,45,218.7C60,235,75,213,90,192C105,171,120,149,135,154.7C150,160,165,192,180,197.3C195,203,210,181,225,144C240,107,255,53,270,58.7C285,64,300,128,315,165.3C330,203,345,213,360,202.7C375,192,390,160,405,170.7C420,181,435,235,450,234.7C465,235,480,181,495,149.3C510,117,525,107,540,112C555,117,570,139,585,133.3C600,128,615,96,630,69.3C645,43,660,21,675,16C690,11,705,21,720,21.3C735,21,750,11,765,42.7C780,75,795,149,810,186.7C825,224,840,224,855,208C870,192,885,160,900,176C915,192,930,256,945,240C960,224,975,128,990,96C1005,64,1020,96,1035,138.7C1050,181,1065,235,1080,234.7C1095,235,1110,181,1125,154.7C1140,128,1155,128,1170,106.7C1185,85,1200,43,1215,48C1230,53,1245,107,1260,128C1275,149,1290,139,1305,144C1320,149,1335,171,1350,176C1365,181,1380,171,1395,176C1410,181,1425,203,1433,213.3L1440,224L1440,0L1432.5,0C1425,0,1410,0,1395,0C1380,0,1365,0,1350,0C1335,0,1320,0,1305,0C1290,0,1275,0,1260,0C1245,0,1230,0,1215,0C1200,0,1185,0,1170,0C1155,0,1140,0,1125,0C1110,0,1095,0,1080,0C1065,0,1050,0,1035,0C1020,0,1005,0,990,0C975,0,960,0,945,0C930,0,915,0,900,0C885,0,870,0,855,0C840,0,825,0,810,0C795,0,780,0,765,0C750,0,735,0,720,0C705,0,690,0,675,0C660,0,645,0,630,0C615,0,600,0,585,0C570,0,555,0,540,0C525,0,510,0,495,0C480,0,465,0,450,0C435,0,420,0,405,0C390,0,375,0,360,0C345,0,330,0,315,0C300,0,285,0,270,0C255,0,240,0,225,0C210,0,195,0,180,0C165,0,150,0,135,0C120,0,105,0,90,0C75,0,60,0,45,0C30,0,15,0,8,0L0,0Z"></path></svg>