<?xml version="1.0"?>
<svg xmlns="http://www.w3.org/2000/svg" xmlns:xlink="http://www.w3.org/1999/xlink" xmlns:svgjs="http://svgjs.com/svgjs" version="1.1" width="512" height="512" x="0" y="0" viewBox="0 0 24 24" style="enable-background:new 0 0 512 512" xml:space="preserve"><g><polygon xmlns="http://www.w3.org/2000/svg" points="13 14 13 16 11 16 11 14 0 14 0 24 24 24 24 14 13 14" fill="#ffffff" data-original="#000000" style=""/><path xmlns="http://www.w3.org/2000/svg" d="M24,12V7a3,3,0,0,0-3-3H18V2a2,2,0,0,0-2-2H8A2,2,0,0,0,6,2V4H3A3,3,0,0,0,0,7v5ZM8,2h8V4H8Z" fill="#ffffff" data-original="#000000" style=""/></g></svg>
